<svg xmlns="http://www.w3.org/2000/svg" width="630" height="480" viewBox="0 0 630 480" fill="none">
<circle cx="78.8" cy="405.2" r="4.1" stroke="rgba(255,255,120,0.2)" stroke-width="2.4"/>
<circle cx="78.8" cy="405.2" r="3.1" stroke="rgba(255,255,120,0.1)" stroke-width="1.6"/>
<circle cx="17.8" cy="420.3" r="19.2" stroke="rgba(255,255,255,0.1)" stroke-width="2.3"/>
<circle cx="17.8" cy="420.3" r="12.9" stroke="rgba(255,255,255,0.1)" stroke-width="1.2"/>
<circle cx="17.8" cy="420.3" r="10.2" stroke="rgba(255,255,255,0.2)" stroke-width="1.9"/>
<circle cx="112.1" cy="398.5" r="11.1" fill="rgba(255,255,255,0.1)"/>
<circle cx="59.7" cy="471.7" r="11.6" stroke="rgba(255,255,255,0.1)" stroke-width="2"/>
<circle cx="59.7" cy="471.7" r="7.9" stroke="rgba(255,255,255,0.2)" stroke-width="1.7"/>
<circle cx="59.7" cy="471.7" r="6.3" stroke="rgba(255,255,255,0.1)" stroke-width="1"/>
<circle cx="51.5" cy="395.6" r="12.1" stroke="rgba(255,255,255,0.2)" stroke-width="1.9"/>
<circle cx="51.5" cy="395.6" r="8.7" stroke="rgba(255,255,255,0.2)" stroke-width="2.2"/>
<circle cx="51.5" cy="395.6" r="5" stroke="rgba(255,255,255,0.2)" stroke-width="1.3"/>
<circle cx="147" cy="456" r="8.5" stroke="rgba(255,255,120,0.1)" stroke-width="1.5"/>
<circle cx="147" cy="456" r="6.2" stroke="rgba(255,255,120,0.2)" stroke-width="1.4"/>
<circle cx="147" cy="456" r="3" stroke="rgba(255,255,120,0.1)" stroke-width="2.2"/>
<circle cx="54.2" cy="475" r="13.6" stroke="rgba(255,255,255,0.1)" stroke-width="2.1"/>
<circle cx="54.2" cy="475" r="10.5" stroke="rgba(255,255,255,0.2)" stroke-width="2.5"/>
<circle cx="54.2" cy="475" r="7.1" stroke="rgba(255,255,255,0.2)" stroke-width="1.5"/>
<circle cx="81.9" cy="463.1" r="18.7" stroke="rgba(255,255,255,0.2)" stroke-width="1.5"/>
<circle cx="179.8" cy="381.3" r="11.4" fill="rgba(255,255,120,0.2)"/>
<circle cx="50.9" cy="481.6" r="4.9" stroke="rgba(255,255,255,0.2)" stroke-width="1.7"/>
<circle cx="151.4" cy="470.2" r="10.9" fill="rgba(255,255,120,0.2)"/>
<circle cx="45" cy="408.9" r="6.3" stroke="rgba(255,255,255,0.1)" stroke-width="1.6"/>
<circle cx="45" cy="408.9" r="4.2" stroke="rgba(255,255,255,0.2)" stroke-width="1.7"/>
<circle cx="45" cy="408.9" r="2.7" stroke="rgba(255,255,255,0.2)" stroke-width="1.6"/>
<circle cx="54.9" cy="425.3" r="7.9" stroke="rgba(255,255,255,0.1)" stroke-width="1.8"/>
<circle cx="54.9" cy="425.3" r="5.8" stroke="rgba(255,255,255,0.1)" stroke-width="1.2"/>
<circle cx="150.9" cy="384.3" r="12.4" fill="rgba(255,255,255,0.2)"/>
<circle cx="135" cy="370.9" r="3.5" fill="rgba(255,255,120,0.1)"/>
<circle cx="99.7" cy="460.3" r="20.4" stroke="rgba(255,255,120,0.1)" stroke-width="2.1"/>
<circle cx="99.7" cy="460.3" r="15.4" stroke="rgba(255,255,120,0.2)" stroke-width="1.9"/>
<circle cx="99.7" cy="460.3" r="8.2" stroke="rgba(255,255,120,0.3)" stroke-width="2.4"/>
<circle cx="78.4" cy="370.9" r="14.1" stroke="rgba(255,255,255,0.2)" stroke-width="1.2"/>
<circle cx="78.4" cy="370.9" r="10.3" stroke="rgba(255,255,255,0.1)" stroke-width="2.4"/>
<circle cx="81.1" cy="368.2" r="14.4" stroke="rgba(255,255,120,0.1)" stroke-width="1.3"/>
<circle cx="81.1" cy="368.2" r="10.8" stroke="rgba(255,255,120,0.2)" stroke-width="1.8"/>
<circle cx="81.1" cy="368.2" r="7.1" stroke="rgba(255,255,120,0.1)" stroke-width="1"/>
<circle cx="-3.9" cy="474.3" r="4" stroke="rgba(255,255,255,0.1)" stroke-width="1.5"/>
<circle cx="-3.9" cy="474.3" r="3.1" stroke="rgba(255,255,255,0.1)" stroke-width="1.5"/>
<circle cx="10.6" cy="464.7" r="7.5" fill="rgba(255,255,120,0.1)"/>
<circle cx="179.3" cy="439.9" r="13" stroke="rgba(255,255,255,0.2)" stroke-width="1.2"/>
<circle cx="11.7" cy="355.8" r="16.6" stroke="rgba(255,255,255,0.2)" stroke-width="1.7"/>
<circle cx="58.8" cy="380.8" r="8.7" stroke="rgba(255,255,255,0.1)" stroke-width="2.2"/>
<circle cx="58.8" cy="380.8" r="6.4" stroke="rgba(255,255,255,0.2)" stroke-width="1.9"/>
<circle cx="74.7" cy="381.2" r="12.4" stroke="rgba(255,255,255,0.1)" stroke-width="1.2"/>
<circle cx="89.8" cy="482.2" r="2.5" fill="rgba(255,255,255,0.1)"/>
<circle cx="61.6" cy="364.8" r="21.5" stroke="rgba(255,255,255,0.1)" stroke-width="1.9"/>
<circle cx="-9.6" cy="446" r="5.9" stroke="rgba(255,255,255,0.2)" stroke-width="1.7"/>
<circle cx="176.6" cy="424.3" r="12.3" stroke="rgba(255,255,120,0.2)" stroke-width="1.6"/>
<circle cx="176.6" cy="424.3" r="8.2" stroke="rgba(255,255,120,0.2)" stroke-width="2.5"/>
<circle cx="88.8" cy="366.1" r="17.4" stroke="rgba(255,255,255,0.2)" stroke-width="1.4"/>
<circle cx="88.8" cy="366.1" r="11.9" stroke="rgba(255,255,255,0.2)" stroke-width="2.4"/>
<circle cx="23.4" cy="464.1" r="4.8" stroke="rgba(255,255,255,0.1)" stroke-width="1.1"/>
<circle cx="44.8" cy="376.7" r="5.1" stroke="rgba(255,255,255,0.2)" stroke-width="1.8"/>
<circle cx="44.8" cy="376.7" r="3.9" stroke="rgba(255,255,255,0.2)" stroke-width="1.2"/>
<circle cx="44.8" cy="376.7" r="2.5" stroke="rgba(255,255,255,0.1)" stroke-width="1"/>
<circle cx="-19.9" cy="371.5" r="16" stroke="rgba(255,255,255,0.1)" stroke-width="2.6"/>
<circle cx="159.1" cy="455.6" r="14.9" stroke="rgba(255,255,255,0.2)" stroke-width="2.5"/>
<circle cx="159.1" cy="455.6" r="10.2" stroke="rgba(255,255,255,0.2)" stroke-width="1.6"/>
<circle cx="158.3" cy="417.2" r="3.9" fill="rgba(255,255,120,0.1)"/>
<circle cx="497.8" cy="376.8" r="12.3" stroke="rgba(255,255,255,0.1)" stroke-width="2.5"/>
<circle cx="497.8" cy="376.8" r="8.7" stroke="rgba(255,255,255,0.1)" stroke-width="1.3"/>
<circle cx="497.8" cy="376.8" r="6.3" stroke="rgba(255,255,255,0.1)" stroke-width="2.5"/>
<circle cx="628.5" cy="409.7" r="3.8" fill="rgba(255,255,255,0.1)"/>
<circle cx="601.4" cy="75.4" r="3" fill="rgba(255,255,120,0.2)"/>
<circle cx="471.2" cy="444.7" r="14.6" stroke="rgba(255,255,255,0.2)" stroke-width="2.2"/>
<circle cx="579.5" cy="425.8" r="7.2" stroke="rgba(255,255,255,0.1)" stroke-width="1.3"/>
<circle cx="579.5" cy="425.8" r="4.8" stroke="rgba(255,255,255,0.1)" stroke-width="2.2"/>
<circle cx="579.5" cy="425.8" r="3.2" stroke="rgba(255,255,255,0.1)" stroke-width="1.1"/>
<circle cx="538.5" cy="293.8" r="4.5" stroke="rgba(255,255,120,0.2)" stroke-width="1.9"/>
<circle cx="538.5" cy="293.8" r="3.2" stroke="rgba(255,255,120,0.1)" stroke-width="1.1"/>
<circle cx="538.5" cy="293.8" r="2.3" stroke="rgba(255,255,120,0.2)" stroke-width="1"/>
<circle cx="575.8" cy="132.8" r="11.2" stroke="rgba(255,255,255,0.2)" stroke-width="1"/>
<circle cx="575.8" cy="132.8" r="8.1" stroke="rgba(255,255,255,0.1)" stroke-width="1.2"/>
<circle cx="575.8" cy="132.8" r="5.8" stroke="rgba(255,255,255,0.2)" stroke-width="1.8"/>
<circle cx="552.2" cy="253.5" r="4.4" stroke="rgba(255,255,120,0.1)" stroke-width="1.5"/>
<circle cx="552.2" cy="253.5" r="3.1" stroke="rgba(255,255,120,0.1)" stroke-width="1.5"/>
<circle cx="522.2" cy="280.8" r="7.1" fill="rgba(255,255,255,0.1)"/>
<circle cx="580.9" cy="443" r="6" fill="rgba(255,255,255,0.1)"/>
<circle cx="625.3" cy="88.9" r="17.1" stroke="rgba(255,255,255,0.2)" stroke-width="1"/>
<circle cx="606.2" cy="386.8" r="13.1" stroke="rgba(255,255,255,0.2)" stroke-width="1.9"/>
<circle cx="512.6" cy="241" r="12.1" stroke="rgba(255,255,255,0.2)" stroke-width="1.4"/>
<circle cx="512.6" cy="241" r="9.2" stroke="rgba(255,255,255,0.2)" stroke-width="1.1"/>
<circle cx="628.4" cy="148.9" r="9.8" stroke="rgba(255,255,255,0.2)" stroke-width="2.2"/>
<circle cx="628.4" cy="148.9" r="6.8" stroke="rgba(255,255,255,0.2)" stroke-width="1.7"/>
<circle cx="486.6" cy="368" r="7.2" stroke="rgba(255,255,255,0.1)" stroke-width="1.9"/>
<circle cx="486.6" cy="368" r="4.8" stroke="rgba(255,255,255,0.1)" stroke-width="2"/>
<circle cx="624.4" cy="235.2" r="17.6" stroke="rgba(255,255,255,0.2)" stroke-width="2.5"/>
<circle cx="504.2" cy="365.9" r="5.1" fill="rgba(255,255,255,0.2)"/>
<circle cx="589.5" cy="238.1" r="11.8" fill="rgba(255,255,255,0.2)"/>
<circle cx="610.6" cy="191.7" r="8.7" fill="rgba(255,255,120,0.1)"/>
<circle cx="484.2" cy="173.6" r="5.6" stroke="rgba(255,255,255,0.1)" stroke-width="1.5"/>
<circle cx="484.2" cy="173.6" r="4.2" stroke="rgba(255,255,255,0.1)" stroke-width="1.5"/>
<circle cx="484.2" cy="173.6" r="2.5" stroke="rgba(255,255,255,0.1)" stroke-width="2.2"/>
<circle cx="555.8" cy="137.2" r="10.1" stroke="rgba(255,255,255,0.1)" stroke-width="1.5"/>
<circle cx="555.8" cy="137.2" r="6.9" stroke="rgba(255,255,255,0.1)" stroke-width="2"/>
<circle cx="555.8" cy="137.2" r="5.2" stroke="rgba(255,255,255,0.2)" stroke-width="1.2"/>
<circle cx="527.7" cy="72.9" r="9" fill="rgba(255,255,120,0.1)"/>
<circle cx="492.5" cy="317.3" r="8.4" fill="rgba(255,255,255,0.1)"/>
<circle cx="611.7" cy="399.2" r="5.1" stroke="rgba(255,255,255,0.1)" stroke-width="1.2"/>
<circle cx="611.7" cy="399.2" r="3.9" stroke="rgba(255,255,255,0.2)" stroke-width="2.1"/>
<circle cx="483.6" cy="423.9" r="13.5" stroke="rgba(255,255,255,0.2)" stroke-width="1.2"/>
<circle cx="594.2" cy="461.9" r="5.2" fill="rgba(255,255,255,0.1)"/>
<circle cx="539.6" cy="370" r="14.9" stroke="rgba(255,255,255,0.2)" stroke-width="1.7"/>
<circle cx="518.1" cy="425.7" r="6.1" fill="rgba(255,255,255,0.1)"/>
<circle cx="485.3" cy="424.4" r="11.7" fill="rgba(255,255,255,0.1)"/>
<circle cx="564.7" cy="336.3" r="10" stroke="rgba(255,255,255,0.2)" stroke-width="1.5"/>
<circle cx="564.7" cy="336.3" r="7.3" stroke="rgba(255,255,255,0.2)" stroke-width="1.6"/>
<circle cx="512.9" cy="121.9" r="13" stroke="rgba(255,255,120,0.1)" stroke-width="2.2"/>
<circle cx="512.9" cy="121.9" r="10" stroke="rgba(255,255,120,0.2)" stroke-width="1.8"/>
<circle cx="614.4" cy="409" r="4.1" stroke="rgba(255,255,120,0.1)" stroke-width="2.4"/>
<circle cx="614.4" cy="409" r="2.8" stroke="rgba(255,255,120,0.1)" stroke-width="1.6"/>
<circle cx="513" cy="440.8" r="8.9" fill="rgba(255,255,255,0.1)"/>
<circle cx="594" cy="165.2" r="12.5" stroke="rgba(255,255,255,0.2)" stroke-width="2.2"/>
<circle cx="594" cy="165.2" r="8.3" stroke="rgba(255,255,255,0.1)" stroke-width="1.9"/>
<circle cx="594" cy="165.2" r="4.2" stroke="rgba(255,255,255,0.2)" stroke-width="1.8"/>
<circle cx="576.6" cy="354.9" r="10.4" fill="rgba(255,255,255,0.1)"/>
<circle cx="580.7" cy="113.8" r="4.9" fill="rgba(255,255,120,0.1)"/>
<circle cx="486.7" cy="427.7" r="10" stroke="rgba(255,255,120,0.2)" stroke-width="2.5"/>
<circle cx="486.7" cy="427.7" r="6.6" stroke="rgba(255,255,120,0.1)" stroke-width="2.6"/>
<circle cx="483.9" cy="443.9" r="5.1" stroke="rgba(255,255,120,0.2)" stroke-width="1.5"/>
<circle cx="626.1" cy="353.6" r="7.1" stroke="rgba(255,255,120,0.2)" stroke-width="1.6"/>
<circle cx="626.1" cy="353.6" r="5.4" stroke="rgba(255,255,120,0.2)" stroke-width="1"/>
<circle cx="517.6" cy="377.1" r="4.2" fill="rgba(255,255,255,0.1)"/>
<circle cx="562.6" cy="225.3" r="17.1" stroke="rgba(255,255,255,0.2)" stroke-width="1.8"/>
<circle cx="562.6" cy="225.3" r="12.1" stroke="rgba(255,255,255,0.2)" stroke-width="1.8"/>
<circle cx="562.6" cy="225.3" r="9.1" stroke="rgba(255,255,255,0.2)" stroke-width="1.2"/>
<circle cx="541.6" cy="117.3" r="9.1" fill="rgba(255,255,120,0.2)"/>
<circle cx="627.3" cy="266.2" r="4.3" stroke="rgba(255,255,120,0.2)" stroke-width="1.4"/>
<circle cx="627.3" cy="266.2" r="3" stroke="rgba(255,255,120,0.2)" stroke-width="2"/>
<circle cx="587.4" cy="370.1" r="5.1" fill="rgba(255,255,120,0.2)"/>
<circle cx="537.3" cy="380.8" r="10.4" stroke="rgba(255,255,255,0.1)" stroke-width="2.1"/>
<circle cx="537.3" cy="380.8" r="7" stroke="rgba(255,255,255,0.1)" stroke-width="2.6"/>
<circle cx="537.3" cy="380.8" r="4.9" stroke="rgba(255,255,255,0.1)" stroke-width="1.4"/>
<circle cx="501" cy="410.9" r="5.8" stroke="rgba(255,255,255,0.2)" stroke-width="1.3"/>
<circle cx="501" cy="410.9" r="4.4" stroke="rgba(255,255,255,0.2)" stroke-width="1.5"/>
<circle cx="501" cy="410.9" r="3" stroke="rgba(255,255,255,0.1)" stroke-width="2.4"/>
<circle cx="536.4" cy="84" r="17.8" stroke="rgba(255,255,255,0.1)" stroke-width="1.3"/>
<circle cx="536.4" cy="84" r="12.6" stroke="rgba(255,255,255,0.1)" stroke-width="2.2"/>
<circle cx="518.4" cy="220.1" r="2.8" fill="rgba(255,255,255,0.1)"/>
<circle cx="502.9" cy="232.4" r="6" stroke="rgba(255,255,120,0.1)" stroke-width="1.4"/>
<circle cx="502.9" cy="232.4" r="4.2" stroke="rgba(255,255,120,0.1)" stroke-width="2.5"/>
<circle cx="572" cy="109.5" r="11" fill="rgba(255,255,255,0.1)"/>
<circle cx="497.8" cy="68.9" r="11.6" stroke="rgba(255,255,255,0.1)" stroke-width="2.1"/>
<circle cx="497.8" cy="68.9" r="9" stroke="rgba(255,255,255,0.1)" stroke-width="2.6"/>
<circle cx="473.8" cy="51" r="10.6" fill="rgba(255,255,255,0.1)"/>
<circle cx="597.8" cy="134.3" r="19.1" stroke="rgba(255,255,255,0.1)" stroke-width="2.2"/>
<circle cx="597.8" cy="134.3" r="13.3" stroke="rgba(255,255,255,0.1)" stroke-width="1.6"/>
<circle cx="597.8" cy="134.3" r="9.7" stroke="rgba(255,255,255,0.1)" stroke-width="2"/>
<circle cx="539.4" cy="113.6" r="14.7" stroke="rgba(255,255,120,0.1)" stroke-width="2.5"/>
<circle cx="539.4" cy="113.6" r="10.6" stroke="rgba(255,255,120,0.1)" stroke-width="2.5"/>
<circle cx="539.4" cy="113.6" r="8.1" stroke="rgba(255,255,120,0.1)" stroke-width="2"/>
<circle cx="564" cy="112.3" r="4.6" stroke="rgba(255,255,255,0.2)" stroke-width="1.2"/>
<circle cx="554.6" cy="430.3" r="7.4" stroke="rgba(255,255,120,0.2)" stroke-width="2.2"/>
<circle cx="554.6" cy="430.3" r="5.7" stroke="rgba(255,255,120,0.1)" stroke-width="1.3"/>
<circle cx="554.6" cy="430.3" r="2.6" stroke="rgba(255,255,120,0.1)" stroke-width="1.9"/>
<circle cx="540.4" cy="67.1" r="9.4" stroke="rgba(255,255,255,0.2)" stroke-width="2.6"/>
<circle cx="540.4" cy="67.1" r="7.1" stroke="rgba(255,255,255,0.2)" stroke-width="2.4"/>
<circle cx="540.4" cy="67.1" r="4.4" stroke="rgba(255,255,255,0.2)" stroke-width="2.5"/>
<circle cx="540.5" cy="356.3" r="6.7" fill="rgba(255,255,120,0.2)"/>
<circle cx="535.5" cy="119.3" r="12.3" stroke="rgba(255,255,255,0.2)" stroke-width="2.2"/>
<circle cx="535.5" cy="119.3" r="8.9" stroke="rgba(255,255,255,0.1)" stroke-width="2.1"/>
<circle cx="529.4" cy="146.4" r="9.6" stroke="rgba(255,255,120,0.1)" stroke-width="1.3"/>
<circle cx="118.7" cy="129.2" r="26.9" stroke="rgba(255,255,255,0.2)" stroke-width="2"/>
<circle cx="118.7" cy="129.2" r="20.4" stroke="rgba(255,255,255,0.1)" stroke-width="1.4"/>
<circle cx="118.7" cy="129.2" r="12.1" stroke="rgba(255,255,255,0.2)" stroke-width="1.5"/>
<circle cx="30.7" cy="34.4" r="29.4" stroke="rgba(255,255,255,0.2)" stroke-width="1.9"/>
<circle cx="116.1" cy="32.6" r="19.7" stroke="rgba(255,255,255,0.1)" stroke-width="1.7"/>
<circle cx="116.1" cy="32.6" r="13.1" stroke="rgba(255,255,255,0.2)" stroke-width="1.3"/>
<circle cx="100" cy="55.2" r="7.7" fill="rgba(255,255,120,0.1)"/>
<circle cx="95.3" cy="129.7" r="27.7" stroke="rgba(255,255,120,0.1)" stroke-width="2.3"/>
<circle cx="23.4" cy="151.2" r="22.8" stroke="rgba(255,255,255,0.2)" stroke-width="2.2"/>
<circle cx="69.4" cy="56.7" r="21.8" stroke="rgba(255,255,255,0.1)" stroke-width="2"/>
<circle cx="107.2" cy="148.3" r="24.4" stroke="rgba(255,255,255,0.2)" stroke-width="1.6"/>
<circle cx="107.2" cy="148.3" r="17.5" stroke="rgba(255,255,255,0.2)" stroke-width="1.8"/>
<circle cx="107.2" cy="148.3" r="7.9" stroke="rgba(255,255,255,0.2)" stroke-width="2.1"/>
<circle cx="109.9" cy="106.6" r="9.7" fill="rgba(255,255,255,0.2)"/>
<circle cx="78.5" cy="31.5" r="15.1" fill="rgba(255,255,120,0.2)"/>
<circle cx="494.7" cy="83.4" r="11.7" stroke="rgba(255,255,255,0.2)" stroke-width="1"/>
<circle cx="569" cy="25.2" r="8.4" fill="rgba(255,255,255,0.1)"/>
<circle cx="537.3" cy="81.7" r="3.4" fill="rgba(255,255,120,0.2)"/>
<circle cx="477.7" cy="42" r="4.6" stroke="rgba(255,255,120,0.1)" stroke-width="1.6"/>
<circle cx="477.7" cy="42" r="3.3" stroke="rgba(255,255,120,0.2)" stroke-width="2.1"/>
<circle cx="477.7" cy="42" r="2.4" stroke="rgba(255,255,120,0.1)" stroke-width="2.2"/>
<circle cx="551.5" cy="32.4" r="23.3" stroke="rgba(255,255,255,0.2)" stroke-width="2"/>
<circle cx="551.5" cy="32.4" r="17.3" stroke="rgba(255,255,255,0.2)" stroke-width="2.3"/>
<circle cx="513.8" cy="112" r="18.7" stroke="rgba(255,255,255,0.1)" stroke-width="1.3"/>
<circle cx="513.8" cy="112" r="12.8" stroke="rgba(255,255,255,0.1)" stroke-width="1.5"/>
<circle cx="513.8" cy="112" r="7.6" stroke="rgba(255,255,255,0.1)" stroke-width="2"/>
<circle cx="531.6" cy="61.2" r="8.3" stroke="rgba(255,255,255,0.2)" stroke-width="2.2"/>
<circle cx="527.6" cy="37.6" r="5.6" stroke="rgba(255,255,255,0.1)" stroke-width="2"/>
<circle cx="527.6" cy="37.6" r="3.9" stroke="rgba(255,255,255,0.1)" stroke-width="2.6"/>
<circle cx="514.9" cy="60.2" r="18.9" stroke="rgba(255,255,255,0.2)" stroke-width="2"/>
<circle cx="534.7" cy="24" r="12.7" stroke="rgba(255,255,255,0.1)" stroke-width="2.5"/>
<circle cx="314.6" cy="461.6" r="4.6" stroke="rgba(255,255,255,0.1)" stroke-width="1.9"/>
<circle cx="314.6" cy="461.6" r="3.2" stroke="rgba(255,255,255,0.2)" stroke-width="1.8"/>
<circle cx="216.1" cy="401.9" r="6.5" fill="rgba(255,255,120,0.1)"/>
<circle cx="212.6" cy="417.1" r="8.4" stroke="rgba(255,255,255,0.1)" stroke-width="1.4"/>
<circle cx="212.6" cy="417.1" r="5.8" stroke="rgba(255,255,255,0.1)" stroke-width="1.1"/>
<circle cx="464.4" cy="457.3" r="2.5" fill="rgba(255,255,120,0.1)"/>
<circle cx="261.7" cy="449.8" r="7.7" fill="rgba(255,255,255,0.2)"/>
<circle cx="291.7" cy="441.2" r="2.8" fill="rgba(255,255,255,0.1)"/>
<circle cx="324.5" cy="379" r="15.7" stroke="rgba(255,255,255,0.2)" stroke-width="2.2"/>
<circle cx="225" cy="398.4" r="2.5" fill="rgba(255,255,255,0.2)"/>
<circle cx="302.1" cy="450.9" r="6.7" fill="rgba(255,255,255,0.1)"/>
<circle cx="255" cy="443.1" r="13.7" stroke="rgba(255,255,255,0.2)" stroke-width="2.5"/>
<circle cx="279.6" cy="375.2" r="13.5" stroke="rgba(255,255,255,0.2)" stroke-width="1.1"/>
<circle cx="279.6" cy="375.2" r="10.5" stroke="rgba(255,255,255,0.2)" stroke-width="2.5"/>
<circle cx="279.6" cy="375.2" r="5.7" stroke="rgba(255,255,255,0.2)" stroke-width="2.1"/>
<circle cx="284.9" cy="385.9" r="3.9" fill="rgba(255,255,120,0.2)"/>
<circle cx="218.7" cy="445.6" r="4.1" stroke="rgba(255,255,255,0.2)" stroke-width="2.5"/>
<circle cx="218.7" cy="445.6" r="3" stroke="rgba(255,255,255,0.2)" stroke-width="2"/>
<circle cx="294.6" cy="461.6" r="10.2" stroke="rgba(255,255,255,0.2)" stroke-width="2.5"/>
<circle cx="294.6" cy="461.6" r="7.7" stroke="rgba(255,255,255,0.2)" stroke-width="2.4"/>
<circle cx="294.6" cy="461.6" r="5" stroke="rgba(255,255,255,0.2)" stroke-width="2.4"/>
<circle cx="60" cy="380" r="62" stroke="rgba(255,255,255,0.1)" stroke-width="1.1"/>
<circle cx="60" cy="380" r="42.1" stroke="rgba(255,255,255,0.1)" stroke-width="1.7"/>
<circle cx="585" cy="330" r="44" stroke="rgba(255,255,255,0.1)" stroke-width="1.2"/>
<circle cx="585" cy="330" r="30.6" stroke="rgba(255,255,255,0.1)" stroke-width="2"/>
<circle cx="585" cy="330" r="14.9" stroke="rgba(255,255,255,0.1)" stroke-width="1.2"/>
<circle cx="585" cy="60" r="40" stroke="rgba(255,255,200,0.2)" stroke-width="2.4"/>
<circle cx="585" cy="60" r="31.1" stroke="rgba(255,255,200,0.2)" stroke-width="1.5"/>
</svg>
